<svg width="65" height="69" viewBox="0 0 65 69" fill="none" xmlns="http://www.w3.org/2000/svg">
<path d="M64.5878 52.6088C64.2817 53.0856 63.8296 53.484 63.279 53.7623C62.7284 54.0405 62.0995 54.1884 61.4581 54.1905H3.61907C2.97857 54.1848 2.35133 54.0354 1.80145 53.7575C1.25157 53.4797 0.798773 53.0832 0.489338 52.6088C0.168631 52.132 0 51.5929 0 51.0444C0 50.4958 0.168631 49.9567 0.489338 49.4799L6.34234 42.0531V21.9388C6.32578 19.0367 6.99335 16.1609 8.306 13.4796C9.61865 10.7983 11.55 8.36528 13.9873 6.32279C16.4245 4.28029 19.3186 2.66932 22.5004 1.58406C25.6822 0.498798 29.0879 -0.0389696 32.5182 0.00219684C39.1218 -0.0575583 45.5087 1.99308 50.4024 5.74423C52.9975 7.82793 55.0583 10.3408 56.4568 13.1268C57.8552 15.9127 58.5615 18.9122 58.5316 21.9388V42.0531L64.4252 49.4799C64.771 49.9447 64.9679 50.4775 64.9964 51.0262C65.0249 51.5748 64.8841 52.1202 64.5878 52.6088ZM32.5182 68.769C37.1519 68.769 41.1758 65.0556 42.8829 59.8293H22.1942C23.9013 65.0556 27.8846 68.769 32.5182 68.769Z" fill="white"/>
</svg>
