<svg width="65" height="72" viewBox="0 0 65 72" fill="none" xmlns="http://www.w3.org/2000/svg">
<path d="M20.0609 9.8906V2C20.0609 0.894499 19.2661 0 18.2839 0C17.3016 0 16.5068 0.894529 16.5068 2V9.8906C16.5068 10.9961 17.3016 11.8906 18.2839 11.8906C19.2661 11.8906 20.0609 10.9961 20.0609 9.8906Z" fill="white"/>
<path d="M48.493 9.8906V2C48.493 0.894499 47.6982 0 46.716 0C45.7338 0 44.939 0.894529 44.939 2V9.8906C44.939 10.9961 45.7338 11.8906 46.716 11.8906C47.6982 11.8906 48.493 10.9961 48.493 9.8906Z" fill="white"/>
<path d="M59.5995 5.05859H50.2701V9.89059C50.2701 12.0976 48.6805 13.8906 46.7161 13.8906C44.7517 13.8906 43.1621 12.0976 43.1621 9.89059V5.05859H21.8379V9.89059C21.8379 12.0976 20.2482 13.8906 18.2838 13.8906C16.3194 13.8906 14.7298 12.0976 14.7298 9.89059V5.05859H5.40044C2.41905 5.05859 0.00346518 7.77739 0 11.1289V20.1797H64.9997V11.1797C65.0101 9.56249 64.4444 8.00389 63.431 6.85549C62.4176 5.70709 61.0398 5.05859 59.5995 5.05859Z" fill="white"/>
<path d="M0 65.6797C0.00347051 69.0352 2.41914 71.75 5.40044 71.75H59.5995C62.5809 71.75 64.9964 69.0352 64.9999 65.6797V24.1797H0.000177943L0 65.6797ZM52.1546 33.3207H58.1624H58.1589C59.1412 33.3207 59.9359 34.2152 59.9359 35.3207C59.9359 36.4262 59.1411 37.3207 58.1589 37.3207H52.1546C51.1723 37.3207 50.3775 36.4262 50.3775 35.3207C50.3775 34.2152 51.1723 33.3207 52.1546 33.3207ZM52.1546 41.7699H58.1624H58.1589C59.1412 41.7699 59.9359 42.6644 59.9359 43.7699C59.9359 44.8754 59.1411 45.7699 58.1589 45.7699H52.1546C51.1723 45.7699 50.3775 44.8754 50.3775 43.7699C50.3775 42.6644 51.1723 41.7699 52.1546 41.7699ZM52.1546 50.2191H58.1624H58.1589C59.1412 50.2191 59.9359 51.1175 59.9359 52.2191C59.9359 53.3246 59.1411 54.2191 58.1589 54.2191H52.1546C51.1723 54.2191 50.3775 53.3246 50.3775 52.2191C50.3775 51.1175 51.1723 50.2191 52.1546 50.2191ZM37.0499 33.3211H43.0577H43.0543C44.0365 33.3211 44.8313 34.2156 44.8313 35.3211C44.8313 36.4266 44.0365 37.3211 43.0543 37.3211H37.0499C36.0677 37.3211 35.2729 36.4266 35.2729 35.3211C35.2729 34.2156 36.0677 33.3211 37.0499 33.3211ZM37.0499 41.7703H43.0577H43.0543C44.0365 41.7703 44.8313 42.6648 44.8313 43.7703C44.8313 44.8758 44.0365 45.7703 43.0543 45.7703H37.0499C36.0677 45.7703 35.2729 44.8758 35.2729 43.7703C35.2729 42.6648 36.0677 41.7703 37.0499 41.7703ZM37.0499 50.2195H43.0577H43.0543C44.0365 50.2195 44.8313 51.1179 44.8313 52.2195C44.8313 53.325 44.0365 54.2195 43.0543 54.2195H37.0499C36.0677 54.2195 35.2729 53.325 35.2729 52.2195C35.2729 51.1179 36.0677 50.2195 37.0499 50.2195ZM21.9453 33.3215H27.9531H27.9496C28.9319 33.3215 29.7266 34.216 29.7266 35.3215C29.7266 36.427 28.9318 37.3215 27.9496 37.3215H21.9453C20.963 37.3215 20.1682 36.427 20.1682 35.3215C20.1682 34.216 20.963 33.3215 21.9453 33.3215ZM21.9453 41.7707H27.9531H27.9496C28.9319 41.7707 29.7266 42.6652 29.7266 43.7707C29.7266 44.8762 28.9318 45.7707 27.9496 45.7707H21.9453C20.963 45.7707 20.1682 44.8762 20.1682 43.7707C20.1682 42.6652 20.963 41.7707 21.9453 41.7707ZM21.9453 50.2199H27.9531H27.9496C28.9319 50.2199 29.7266 51.1183 29.7266 52.2199C29.7266 53.3254 28.9318 54.2199 27.9496 54.2199H21.9453C20.963 54.2199 20.1682 53.3254 20.1682 52.2199C20.1682 51.1183 20.963 50.2199 21.9453 50.2199ZM21.9453 58.6691H27.9531L27.9496 58.673C28.9319 58.673 29.7266 59.5675 29.7266 60.673C29.7266 61.7746 28.9318 62.673 27.9496 62.673H21.9453C20.963 62.673 20.1682 61.7745 20.1682 60.673C20.1682 59.5675 20.963 58.673 21.9453 58.673L21.9453 58.6691ZM6.84063 41.7711H12.8485H12.845C13.8272 41.7711 14.622 42.6656 14.622 43.7711C14.622 44.8766 13.8272 45.7711 12.845 45.7711H6.84062C5.85838 45.7711 5.06361 44.8766 5.06361 43.7711C5.06361 42.6656 5.85841 41.7711 6.84063 41.7711ZM6.84063 50.2203H12.8485H12.845C13.8272 50.2203 14.622 51.1187 14.622 52.2203C14.622 53.3258 13.8272 54.2203 12.845 54.2203H6.84062C5.85838 54.2203 5.06361 53.3258 5.06361 52.2203C5.06361 51.1187 5.85841 50.2203 6.84063 50.2203ZM6.84063 58.6695H12.8485L12.845 58.6734C13.8272 58.6734 14.622 59.5679 14.622 60.6734C14.622 61.775 13.8272 62.6734 12.845 62.6734H6.84062C5.85838 62.6734 5.06361 61.775 5.06361 60.6734C5.06361 59.5679 5.8584 58.6734 6.84062 58.6734L6.84063 58.6695Z" fill="white"/>
</svg>
